<mxfile host="Electron" agent="Mozilla/5.0 (Macintosh; Intel Mac OS X 10_15_7) AppleWebKit/537.36 (KHTML, like Gecko) draw.io/26.0.9 Chrome/128.0.6613.186 Electron/32.2.5 Safari/537.36" version="26.0.9">
  <diagram name="Page-1" id="zB9UREpVWNrtzUzA8oSV">
    <mxGraphModel dx="2164" dy="924" grid="1" gridSize="10" guides="1" tooltips="1" connect="1" arrows="1" fold="1" page="1" pageScale="1" pageWidth="850" pageHeight="1100" math="0" shadow="0">
      <root>
        <mxCell id="0" />
        <mxCell id="1" parent="0" />
        <mxCell id="1mAbDg6GUyUuiM4qipqp-304" value="" style="rounded=1;whiteSpace=wrap;html=1;fillColor=#76608a;strokeWidth=0.2;strokeColor=#432D57;fontColor=#ffffff;opacity=10;" parent="1" vertex="1">
          <mxGeometry x="260" y="280" width="180" height="73" as="geometry" />
        </mxCell>
        <mxCell id="1mAbDg6GUyUuiM4qipqp-316" value="&lt;b style=&quot;border-color: var(--border-color); font-size: 12px;&quot;&gt;&lt;b style=&quot;border-color: var(--border-color); font-size: 12px;&quot;&gt;Hits&lt;br style=&quot;border-color: var(--border-color); font-size: 12px;&quot;&gt;&lt;/b&gt;Decoder&lt;br style=&quot;font-size: 12px;&quot;&gt;&lt;/b&gt;" style="rounded=1;whiteSpace=wrap;html=1;fillColor=#a0522d;strokeColor=#6D1F00;fontColor=#ffffff;fontSize=12;" parent="1" vertex="1">
          <mxGeometry x="458" y="341" width="82" height="39" as="geometry" />
        </mxCell>
        <mxCell id="-NK8212SFT77abo9Widv-47" style="edgeStyle=orthogonalEdgeStyle;rounded=0;orthogonalLoop=1;jettySize=auto;html=1;exitX=1;exitY=0.5;exitDx=0;exitDy=0;entryX=0;entryY=0.5;entryDx=0;entryDy=0;endArrow=none;strokeColor=#999999;endFill=0;" parent="1" source="1mAbDg6GUyUuiM4qipqp-179" target="1mAbDg6GUyUuiM4qipqp-196" edge="1">
          <mxGeometry relative="1" as="geometry" />
        </mxCell>
        <mxCell id="1mAbDg6GUyUuiM4qipqp-179" value="&lt;b style=&quot;font-size: 12px;&quot;&gt;Variational&amp;nbsp;&lt;br style=&quot;font-size: 12px;&quot;&gt;Encoder&lt;/b&gt;" style="rounded=1;whiteSpace=wrap;html=1;fillColor=#76608a;fontColor=#ffffff;strokeColor=#432D57;fontSize=12;" parent="1" vertex="1">
          <mxGeometry x="247.5" y="379" width="91" height="51" as="geometry" />
        </mxCell>
        <mxCell id="1mAbDg6GUyUuiM4qipqp-180" value="" style="group" parent="1" vertex="1" connectable="0">
          <mxGeometry x="-20" y="389" width="106" height="53" as="geometry" />
        </mxCell>
        <mxCell id="1mAbDg6GUyUuiM4qipqp-181" value="" style="group" parent="1mAbDg6GUyUuiM4qipqp-180" vertex="1" connectable="0">
          <mxGeometry x="7.571428571428571" width="90.85714285714286" height="30" as="geometry" />
        </mxCell>
        <mxCell id="1mAbDg6GUyUuiM4qipqp-182" value="" style="rounded=0;whiteSpace=wrap;html=1;fillColor=#eeeeee;strokeColor=none;" parent="1mAbDg6GUyUuiM4qipqp-181" vertex="1">
          <mxGeometry width="90.85714285714286" height="30" as="geometry" />
        </mxCell>
        <mxCell id="1mAbDg6GUyUuiM4qipqp-183" value="" style="group" parent="1mAbDg6GUyUuiM4qipqp-181" vertex="1" connectable="0">
          <mxGeometry x="3.785714285714286" y="4" width="83.28571428571429" height="24" as="geometry" />
        </mxCell>
        <mxCell id="1mAbDg6GUyUuiM4qipqp-184" value="" style="endArrow=oval;html=1;rounded=0;endFill=1;strokeWidth=1;dashed=1;" parent="1mAbDg6GUyUuiM4qipqp-183" edge="1">
          <mxGeometry width="50" height="50" relative="1" as="geometry">
            <mxPoint x="0.043453416149083074" y="24" as="sourcePoint" />
            <mxPoint as="targetPoint" />
          </mxGeometry>
        </mxCell>
        <mxCell id="1mAbDg6GUyUuiM4qipqp-185" value="" style="endArrow=oval;html=1;rounded=0;endFill=1;strokeWidth=1;dashed=1;" parent="1mAbDg6GUyUuiM4qipqp-183" edge="1">
          <mxGeometry width="50" height="50" relative="1" as="geometry">
            <mxPoint x="7.28568944099378" y="24" as="sourcePoint" />
            <mxPoint x="7.24223602484474" y="12" as="targetPoint" />
          </mxGeometry>
        </mxCell>
        <mxCell id="1mAbDg6GUyUuiM4qipqp-186" value="" style="endArrow=oval;html=1;rounded=0;endFill=1;startSize=1;strokeWidth=1;dashed=1;" parent="1mAbDg6GUyUuiM4qipqp-183" edge="1">
          <mxGeometry width="50" height="50" relative="1" as="geometry">
            <mxPoint x="21.77016149068322" y="24" as="sourcePoint" />
            <mxPoint x="21.726708074534177" as="targetPoint" />
          </mxGeometry>
        </mxCell>
        <mxCell id="1mAbDg6GUyUuiM4qipqp-187" value="" style="endArrow=oval;html=1;rounded=0;endFill=1;" parent="1mAbDg6GUyUuiM4qipqp-183" edge="1">
          <mxGeometry width="50" height="50" relative="1" as="geometry">
            <mxPoint x="21.77016149068322" y="24" as="sourcePoint" />
            <mxPoint x="21.770161490683176" y="24" as="targetPoint" />
          </mxGeometry>
        </mxCell>
        <mxCell id="1mAbDg6GUyUuiM4qipqp-188" value="" style="endArrow=oval;html=1;rounded=0;endFill=1;startSize=1;strokeWidth=1;dashed=1;" parent="1mAbDg6GUyUuiM4qipqp-183" edge="1">
          <mxGeometry width="50" height="50" relative="1" as="geometry">
            <mxPoint x="21.77016149068322" y="24" as="sourcePoint" />
            <mxPoint x="21.726708074534177" y="24" as="targetPoint" />
          </mxGeometry>
        </mxCell>
        <mxCell id="1mAbDg6GUyUuiM4qipqp-189" value="" style="endArrow=oval;html=1;rounded=0;endFill=1;startSize=1;strokeWidth=1;dashed=1;" parent="1mAbDg6GUyUuiM4qipqp-183" edge="1">
          <mxGeometry width="50" height="50" relative="1" as="geometry">
            <mxPoint x="43.460658385093154" y="24" as="sourcePoint" />
            <mxPoint x="43.45341614906831" y="12" as="targetPoint" />
          </mxGeometry>
        </mxCell>
        <mxCell id="1mAbDg6GUyUuiM4qipqp-190" value="" style="endArrow=oval;html=1;rounded=0;endFill=1;startSize=1;strokeWidth=1;dashed=1;" parent="1mAbDg6GUyUuiM4qipqp-183" edge="1">
          <mxGeometry width="50" height="50" relative="1" as="geometry">
            <mxPoint x="50.695652173913054" y="24" as="sourcePoint" />
            <mxPoint x="50.695652173913054" y="18" as="targetPoint" />
            <Array as="points">
              <mxPoint x="50.695652173913054" y="18" />
            </Array>
          </mxGeometry>
        </mxCell>
        <mxCell id="1mAbDg6GUyUuiM4qipqp-191" value="" style="endArrow=oval;html=1;rounded=0;dashed=1;endFill=1;" parent="1mAbDg6GUyUuiM4qipqp-183" edge="1">
          <mxGeometry width="50" height="50" relative="1" as="geometry">
            <mxPoint x="65.18012422360249" y="24" as="sourcePoint" />
            <mxPoint x="65.18012422360249" y="6" as="targetPoint" />
          </mxGeometry>
        </mxCell>
        <mxCell id="1mAbDg6GUyUuiM4qipqp-192" value="" style="endArrow=oval;html=1;rounded=0;dashed=1;endFill=1;" parent="1mAbDg6GUyUuiM4qipqp-183" edge="1">
          <mxGeometry width="50" height="50" relative="1" as="geometry">
            <mxPoint x="83.28373913043481" y="24" as="sourcePoint" />
            <mxPoint x="83.28373913043481" as="targetPoint" />
          </mxGeometry>
        </mxCell>
        <mxCell id="1mAbDg6GUyUuiM4qipqp-193" value="" style="endArrow=none;html=1;rounded=0;" parent="1mAbDg6GUyUuiM4qipqp-183" edge="1">
          <mxGeometry width="50" height="50" relative="1" as="geometry">
            <mxPoint y="24" as="sourcePoint" />
            <mxPoint x="83.28571428571429" y="24" as="targetPoint" />
          </mxGeometry>
        </mxCell>
        <mxCell id="1mAbDg6GUyUuiM4qipqp-194" value="" style="endArrow=none;html=1;rounded=0;" parent="1mAbDg6GUyUuiM4qipqp-183" edge="1">
          <mxGeometry width="50" height="50" relative="1" as="geometry">
            <mxPoint y="24" as="sourcePoint" />
            <mxPoint x="83.28571428571429" y="24" as="targetPoint" />
          </mxGeometry>
        </mxCell>
        <mxCell id="1mAbDg6GUyUuiM4qipqp-195" value="Single Voice Rhythm" style="text;html=1;strokeColor=none;fillColor=none;align=center;verticalAlign=middle;whiteSpace=wrap;rounded=0;fontStyle=1" parent="1mAbDg6GUyUuiM4qipqp-180" vertex="1">
          <mxGeometry y="31" width="106" height="30" as="geometry" />
        </mxCell>
        <mxCell id="1mAbDg6GUyUuiM4qipqp-196" value="&lt;b&gt;Z&lt;/b&gt;" style="rounded=0;whiteSpace=wrap;html=1;fillColor=#f0a30a;fontColor=#000000;strokeColor=#BD7000;" parent="1" vertex="1">
          <mxGeometry x="355" y="377" width="20" height="55" as="geometry" />
        </mxCell>
        <mxCell id="1mAbDg6GUyUuiM4qipqp-202" style="edgeStyle=orthogonalEdgeStyle;rounded=0;orthogonalLoop=1;jettySize=auto;html=1;entryX=0;entryY=0.5;entryDx=0;entryDy=0;strokeColor=#999999;exitX=1;exitY=0.5;exitDx=0;exitDy=0;endArrow=none;endFill=0;" parent="1" source="-NK8212SFT77abo9Widv-12" target="1mAbDg6GUyUuiM4qipqp-179" edge="1">
          <mxGeometry relative="1" as="geometry">
            <mxPoint x="220" y="404" as="sourcePoint" />
          </mxGeometry>
        </mxCell>
        <mxCell id="1mAbDg6GUyUuiM4qipqp-318" style="edgeStyle=orthogonalEdgeStyle;shape=connector;rounded=0;orthogonalLoop=1;jettySize=auto;html=1;entryX=0;entryY=0.5;entryDx=0;entryDy=0;labelBackgroundColor=default;strokeColor=#999999;fontFamily=Helvetica;fontSize=11;fontColor=default;endArrow=none;endFill=0;" parent="1" source="1mAbDg6GUyUuiM4qipqp-281" target="1mAbDg6GUyUuiM4qipqp-316" edge="1">
          <mxGeometry relative="1" as="geometry">
            <Array as="points">
              <mxPoint x="440" y="404" />
              <mxPoint x="440" y="360" />
            </Array>
          </mxGeometry>
        </mxCell>
        <mxCell id="1mAbDg6GUyUuiM4qipqp-281" value="+" style="ellipse;whiteSpace=wrap;html=1;aspect=fixed;fillColor=#f5f5f5;fontColor=#333333;strokeColor=#666666;" parent="1" vertex="1">
          <mxGeometry x="410" y="394.5" width="19" height="19" as="geometry" />
        </mxCell>
        <mxCell id="1mAbDg6GUyUuiM4qipqp-283" style="edgeStyle=orthogonalEdgeStyle;rounded=0;orthogonalLoop=1;jettySize=auto;html=1;entryX=0.5;entryY=0;entryDx=0;entryDy=0;opacity=80;strokeColor=#999999;dashed=1;exitX=0.5;exitY=1;exitDx=0;exitDy=0;" parent="1" source="1mAbDg6GUyUuiM4qipqp-238" target="1mAbDg6GUyUuiM4qipqp-281" edge="1">
          <mxGeometry relative="1" as="geometry">
            <Array as="points">
              <mxPoint x="290" y="360" />
              <mxPoint x="419" y="360" />
            </Array>
          </mxGeometry>
        </mxCell>
        <mxCell id="1mAbDg6GUyUuiM4qipqp-284" style="edgeStyle=orthogonalEdgeStyle;rounded=0;orthogonalLoop=1;jettySize=auto;html=1;entryX=0.5;entryY=0;entryDx=0;entryDy=0;opacity=80;strokeColor=#999999;dashed=1;exitX=0.5;exitY=1;exitDx=0;exitDy=0;" parent="1" source="1mAbDg6GUyUuiM4qipqp-266" target="1mAbDg6GUyUuiM4qipqp-281" edge="1">
          <mxGeometry relative="1" as="geometry">
            <Array as="points">
              <mxPoint x="350" y="360" />
              <mxPoint x="419" y="360" />
            </Array>
            <mxPoint x="350" y="350" as="sourcePoint" />
          </mxGeometry>
        </mxCell>
        <mxCell id="1mAbDg6GUyUuiM4qipqp-285" style="edgeStyle=orthogonalEdgeStyle;rounded=0;orthogonalLoop=1;jettySize=auto;html=1;entryX=0.5;entryY=0;entryDx=0;entryDy=0;opacity=80;strokeColor=#999999;dashed=1;exitX=0.5;exitY=1;exitDx=0;exitDy=0;" parent="1" source="1mAbDg6GUyUuiM4qipqp-270" target="1mAbDg6GUyUuiM4qipqp-281" edge="1">
          <mxGeometry relative="1" as="geometry">
            <Array as="points">
              <mxPoint x="410" y="360" />
              <mxPoint x="419" y="360" />
            </Array>
            <mxPoint x="410" y="350" as="sourcePoint" />
          </mxGeometry>
        </mxCell>
        <mxCell id="1mAbDg6GUyUuiM4qipqp-237" value="&lt;b style=&quot;font-size: 9px;&quot;&gt;Stream 1&lt;/b&gt;&lt;div&gt;&lt;b style=&quot;font-size: 9px;&quot;&gt;Activity&lt;/b&gt;&lt;/div&gt;" style="rounded=0;whiteSpace=wrap;html=1;fillColor=#f0a30a;strokeColor=#BD7000;fontSize=9;fontColor=#000000;opacity=40;" parent="1" vertex="1">
          <mxGeometry x="264" y="287" width="52" height="31.43" as="geometry" />
        </mxCell>
        <mxCell id="1mAbDg6GUyUuiM4qipqp-238" value="&lt;b style=&quot;font-size: 9px;&quot;&gt;Embed&lt;br style=&quot;font-size: 9px;&quot;&gt;&lt;/b&gt;" style="rounded=1;whiteSpace=wrap;html=1;fillColor=#f0a30a;strokeColor=#BD7000;fontSize=9;fontColor=#000000;opacity=40;" parent="1" vertex="1">
          <mxGeometry x="264" y="325.57142857142856" width="52" height="21.428571428571427" as="geometry" />
        </mxCell>
        <mxCell id="1mAbDg6GUyUuiM4qipqp-239" value="" style="endArrow=none;html=1;rounded=0;exitX=0.5;exitY=0;exitDx=0;exitDy=0;entryX=0.5;entryY=1;entryDx=0;entryDy=0;" parent="1" source="1mAbDg6GUyUuiM4qipqp-238" target="1mAbDg6GUyUuiM4qipqp-237" edge="1">
          <mxGeometry width="50" height="50" relative="1" as="geometry">
            <mxPoint x="244" y="354.14285714285717" as="sourcePoint" />
            <mxPoint x="294" y="318.42857142857144" as="targetPoint" />
          </mxGeometry>
        </mxCell>
        <mxCell id="1mAbDg6GUyUuiM4qipqp-265" value="&lt;b&gt;Stream 2&amp;nbsp;&lt;/b&gt;&lt;b style=&quot;background-color: transparent; color: light-dark(rgb(0, 0, 0), rgb(237, 237, 237));&quot;&gt;Activity&lt;/b&gt;" style="rounded=0;whiteSpace=wrap;html=1;fillColor=#f0a30a;strokeColor=#BD7000;fontSize=9;fontColor=#000000;opacity=40;" parent="1" vertex="1">
          <mxGeometry x="324" y="287" width="52" height="31.43" as="geometry" />
        </mxCell>
        <mxCell id="1mAbDg6GUyUuiM4qipqp-266" value="&lt;b style=&quot;font-size: 9px;&quot;&gt;Embed&lt;br style=&quot;font-size: 9px;&quot;&gt;&lt;/b&gt;" style="rounded=1;whiteSpace=wrap;html=1;fillColor=#f0a30a;strokeColor=#BD7000;fontSize=9;fontColor=#000000;opacity=40;" parent="1" vertex="1">
          <mxGeometry x="324" y="325.57142857142856" width="52" height="21.428571428571427" as="geometry" />
        </mxCell>
        <mxCell id="1mAbDg6GUyUuiM4qipqp-267" value="" style="endArrow=none;html=1;rounded=0;exitX=0.5;exitY=0;exitDx=0;exitDy=0;entryX=0.5;entryY=1;entryDx=0;entryDy=0;" parent="1" source="1mAbDg6GUyUuiM4qipqp-266" target="1mAbDg6GUyUuiM4qipqp-265" edge="1">
          <mxGeometry width="50" height="50" relative="1" as="geometry">
            <mxPoint x="304" y="354.14285714285717" as="sourcePoint" />
            <mxPoint x="354" y="318.42857142857144" as="targetPoint" />
          </mxGeometry>
        </mxCell>
        <mxCell id="1mAbDg6GUyUuiM4qipqp-269" value="&lt;b&gt;Stream 3&amp;nbsp;&lt;/b&gt;&lt;b style=&quot;color: light-dark(rgb(0, 0, 0), rgb(237, 237, 237)); background-color: transparent;&quot;&gt;Activity&lt;/b&gt;&lt;b style=&quot;font-size: 9px;&quot;&gt;&lt;br style=&quot;font-size: 9px;&quot;&gt;&lt;/b&gt;" style="rounded=0;whiteSpace=wrap;html=1;fillColor=#f0a30a;strokeColor=#BD7000;fontSize=9;fontColor=#000000;opacity=40;" parent="1" vertex="1">
          <mxGeometry x="384" y="287" width="52" height="31.43" as="geometry" />
        </mxCell>
        <mxCell id="1mAbDg6GUyUuiM4qipqp-270" value="&lt;b style=&quot;font-size: 9px;&quot;&gt;Embed&lt;br style=&quot;font-size: 9px;&quot;&gt;&lt;/b&gt;" style="rounded=1;whiteSpace=wrap;html=1;fillColor=#f0a30a;strokeColor=#BD7000;fontSize=9;fontColor=#000000;opacity=40;" parent="1" vertex="1">
          <mxGeometry x="384" y="325.57142857142856" width="52" height="21.428571428571427" as="geometry" />
        </mxCell>
        <mxCell id="1mAbDg6GUyUuiM4qipqp-271" value="" style="endArrow=none;html=1;rounded=0;exitX=0.5;exitY=0;exitDx=0;exitDy=0;entryX=0.5;entryY=1;entryDx=0;entryDy=0;" parent="1" source="1mAbDg6GUyUuiM4qipqp-270" target="1mAbDg6GUyUuiM4qipqp-269" edge="1">
          <mxGeometry width="50" height="50" relative="1" as="geometry">
            <mxPoint x="364" y="354.14285714285717" as="sourcePoint" />
            <mxPoint x="414" y="318.42857142857144" as="targetPoint" />
          </mxGeometry>
        </mxCell>
        <mxCell id="1mAbDg6GUyUuiM4qipqp-314" value="&lt;b style=&quot;border-color: var(--border-color); font-size: 12px;&quot;&gt;Velocities&lt;br style=&quot;font-size: 12px;&quot;&gt;Decoder&lt;br style=&quot;font-size: 12px;&quot;&gt;&lt;/b&gt;" style="rounded=1;whiteSpace=wrap;html=1;fillColor=#647687;strokeColor=#314354;fontColor=#ffffff;fontSize=12;" parent="1" vertex="1">
          <mxGeometry x="458" y="385" width="82" height="39" as="geometry" />
        </mxCell>
        <mxCell id="-NK8212SFT77abo9Widv-28" style="edgeStyle=orthogonalEdgeStyle;rounded=0;orthogonalLoop=1;jettySize=auto;html=1;entryX=0;entryY=0.477;entryDx=0;entryDy=0;entryPerimeter=0;strokeColor=#999999;endArrow=none;endFill=0;" parent="1" source="1mAbDg6GUyUuiM4qipqp-281" target="1mAbDg6GUyUuiM4qipqp-314" edge="1">
          <mxGeometry relative="1" as="geometry" />
        </mxCell>
        <mxCell id="1mAbDg6GUyUuiM4qipqp-315" value="&lt;b style=&quot;font-size: 12px;&quot;&gt;Offsets&lt;br style=&quot;font-size: 12px;&quot;&gt;Decoder&lt;br style=&quot;font-size: 12px;&quot;&gt;&lt;/b&gt;" style="rounded=1;whiteSpace=wrap;html=1;fillColor=#6d8764;strokeColor=#3A5431;fontColor=#ffffff;fontSize=12;" parent="1" vertex="1">
          <mxGeometry x="459" y="429" width="81" height="41.5" as="geometry" />
        </mxCell>
        <mxCell id="-NK8212SFT77abo9Widv-1" value="&lt;b&gt;Rhythm Similarity&lt;/b&gt;" style="rounded=0;whiteSpace=wrap;html=1;fillColor=#f0a30a;strokeColor=#BD7000;fontSize=9;fontColor=#000000;opacity=40;" parent="1" vertex="1">
          <mxGeometry x="174.5" y="480.00142857142856" width="52" height="21.428571428571427" as="geometry" />
        </mxCell>
        <mxCell id="1mAbDg6GUyUuiM4qipqp-317" style="edgeStyle=orthogonalEdgeStyle;shape=connector;rounded=0;orthogonalLoop=1;jettySize=auto;html=1;entryX=-0.002;entryY=0.269;entryDx=0;entryDy=0;labelBackgroundColor=default;strokeColor=#999999;fontFamily=Helvetica;fontSize=11;fontColor=default;endArrow=none;entryPerimeter=0;endFill=0;" parent="1" source="1mAbDg6GUyUuiM4qipqp-281" target="1mAbDg6GUyUuiM4qipqp-315" edge="1">
          <mxGeometry relative="1" as="geometry">
            <Array as="points">
              <mxPoint x="440" y="404" />
              <mxPoint x="440" y="440" />
              <mxPoint x="458" y="440" />
            </Array>
          </mxGeometry>
        </mxCell>
        <mxCell id="-NK8212SFT77abo9Widv-4" value="&lt;b style=&quot;&quot;&gt;&lt;font style=&quot;font-size: 10px;&quot;&gt;Hits Linear&lt;/font&gt;&lt;/b&gt;" style="rounded=1;whiteSpace=wrap;html=1;fillColor=#a0522d;fontColor=#ffffff;strokeColor=#6D1F00;fontSize=12;" parent="1" vertex="1">
          <mxGeometry x="103" y="366" width="87" height="21" as="geometry" />
        </mxCell>
        <mxCell id="-NK8212SFT77abo9Widv-5" value="&lt;b style=&quot;&quot;&gt;&lt;font style=&quot;font-size: 10px;&quot;&gt;Velocities Linear&lt;/font&gt;&lt;/b&gt;" style="rounded=1;whiteSpace=wrap;html=1;fillColor=#647687;fontColor=#ffffff;strokeColor=#314354;fontSize=12;" parent="1" vertex="1">
          <mxGeometry x="103" y="393" width="87" height="22" as="geometry" />
        </mxCell>
        <mxCell id="-NK8212SFT77abo9Widv-44" style="edgeStyle=orthogonalEdgeStyle;rounded=0;orthogonalLoop=1;jettySize=auto;html=1;exitX=1;exitY=0.25;exitDx=0;exitDy=0;entryX=0;entryY=1;entryDx=0;entryDy=0;endArrow=none;strokeColor=#999999;endFill=0;" parent="1" source="-NK8212SFT77abo9Widv-6" target="-NK8212SFT77abo9Widv-12" edge="1">
          <mxGeometry relative="1" as="geometry">
            <Array as="points">
              <mxPoint x="200" y="428" />
              <mxPoint x="200" y="411" />
            </Array>
          </mxGeometry>
        </mxCell>
        <mxCell id="-NK8212SFT77abo9Widv-6" value="&lt;b style=&quot;&quot;&gt;&lt;font style=&quot;font-size: 10px;&quot;&gt;Offsets Linear&lt;/font&gt;&lt;/b&gt;" style="rounded=1;whiteSpace=wrap;html=1;fillColor=#6d8764;fontColor=#ffffff;strokeColor=#3A5431;fontSize=12;" parent="1" vertex="1">
          <mxGeometry x="103" y="422.5" width="87" height="21" as="geometry" />
        </mxCell>
        <mxCell id="-NK8212SFT77abo9Widv-9" style="edgeStyle=orthogonalEdgeStyle;rounded=0;orthogonalLoop=1;jettySize=auto;html=1;entryX=0;entryY=0.5;entryDx=0;entryDy=0;exitX=1;exitY=0.5;exitDx=0;exitDy=0;strokeColor=#999999;endArrow=none;endFill=0;" parent="1" source="1mAbDg6GUyUuiM4qipqp-182" target="-NK8212SFT77abo9Widv-4" edge="1">
          <mxGeometry relative="1" as="geometry">
            <Array as="points">
              <mxPoint x="86" y="404" />
              <mxPoint x="86" y="376" />
            </Array>
          </mxGeometry>
        </mxCell>
        <mxCell id="-NK8212SFT77abo9Widv-10" style="edgeStyle=orthogonalEdgeStyle;rounded=0;orthogonalLoop=1;jettySize=auto;html=1;entryX=0;entryY=0.5;entryDx=0;entryDy=0;strokeColor=#999999;endArrow=none;endFill=0;" parent="1" source="1mAbDg6GUyUuiM4qipqp-182" target="-NK8212SFT77abo9Widv-5" edge="1">
          <mxGeometry relative="1" as="geometry" />
        </mxCell>
        <mxCell id="-NK8212SFT77abo9Widv-11" style="edgeStyle=orthogonalEdgeStyle;rounded=0;orthogonalLoop=1;jettySize=auto;html=1;entryX=0;entryY=0.5;entryDx=0;entryDy=0;strokeColor=#999999;endArrow=none;endFill=0;" parent="1" source="1mAbDg6GUyUuiM4qipqp-182" target="-NK8212SFT77abo9Widv-6" edge="1">
          <mxGeometry relative="1" as="geometry">
            <mxPoint x="96" y="436" as="targetPoint" />
            <Array as="points">
              <mxPoint x="86" y="404" />
              <mxPoint x="86" y="433" />
            </Array>
          </mxGeometry>
        </mxCell>
        <mxCell id="-NK8212SFT77abo9Widv-12" value="+" style="ellipse;whiteSpace=wrap;html=1;aspect=fixed;fillColor=#f5f5f5;fontColor=#333333;strokeColor=#666666;" parent="1" vertex="1">
          <mxGeometry x="210" y="394.5" width="19" height="19" as="geometry" />
        </mxCell>
        <mxCell id="-NK8212SFT77abo9Widv-23" style="edgeStyle=orthogonalEdgeStyle;rounded=0;orthogonalLoop=1;jettySize=auto;html=1;entryX=0.5;entryY=1;entryDx=0;entryDy=0;strokeColor=#999999;dashed=1;exitX=0.5;exitY=0;exitDx=0;exitDy=0;" parent="1" source="-NK8212SFT77abo9Widv-1" target="-NK8212SFT77abo9Widv-12" edge="1">
          <mxGeometry relative="1" as="geometry">
            <Array as="points">
              <mxPoint x="201" y="440" />
              <mxPoint x="219" y="440" />
            </Array>
          </mxGeometry>
        </mxCell>
        <mxCell id="1mAbDg6GUyUuiM4qipqp-164" value="" style="group;fillColor=#ffe6cc;strokeColor=#d79b00;" parent="1" vertex="1" connectable="0">
          <mxGeometry x="603.38" y="336" width="83.24" height="30" as="geometry" />
        </mxCell>
        <mxCell id="1mAbDg6GUyUuiM4qipqp-165" value="..." style="rounded=0;whiteSpace=wrap;html=1;fillColor=#fff2cc;strokeColor=#d6b656;" parent="1mAbDg6GUyUuiM4qipqp-164" vertex="1">
          <mxGeometry width="83.23999999999998" height="30" as="geometry" />
        </mxCell>
        <mxCell id="-NK8212SFT77abo9Widv-22" value="OutputStream3" style="text;html=1;strokeColor=none;fillColor=none;align=center;verticalAlign=middle;whiteSpace=wrap;rounded=0;fontStyle=1;fontSize=10;" parent="1" vertex="1">
          <mxGeometry x="600.0015028901734" y="365.21000000000004" width="90" height="19.79" as="geometry" />
        </mxCell>
        <mxCell id="-NK8212SFT77abo9Widv-21" value="OutputStream1" style="text;html=1;strokeColor=none;fillColor=none;align=center;verticalAlign=middle;whiteSpace=wrap;rounded=0;fontStyle=1;fontSize=10;" parent="1" vertex="1">
          <mxGeometry x="627.6604624277456" y="470.5036170212766" width="34.68208092485549" height="19.787234042553195" as="geometry" />
        </mxCell>
        <mxCell id="-NK8212SFT77abo9Widv-29" value="OutputStream2" style="text;html=1;strokeColor=none;fillColor=none;align=center;verticalAlign=middle;whiteSpace=wrap;rounded=0;fontStyle=1;fontSize=10;" parent="1" vertex="1">
          <mxGeometry x="627.6604624277456" y="416.7063829787234" width="34.68208092485549" height="19.787234042553195" as="geometry" />
        </mxCell>
        <mxCell id="-NK8212SFT77abo9Widv-33" value="Sigmoid" style="ellipse;whiteSpace=wrap;html=1;fontSize=9;fillColor=#a0522d;fontColor=#ffffff;strokeColor=#6D1F00;fontStyle=1" parent="1" vertex="1">
          <mxGeometry x="552" y="342.74" width="40" height="31.57" as="geometry" />
        </mxCell>
        <mxCell id="-NK8212SFT77abo9Widv-34" value="Tanh" style="ellipse;whiteSpace=wrap;html=1;fontSize=9;fillColor=#647687;fontColor=#ffffff;strokeColor=#314354;fontStyle=1" parent="1" vertex="1">
          <mxGeometry x="552" y="388.21000000000004" width="40" height="31.57" as="geometry" />
        </mxCell>
        <mxCell id="-NK8212SFT77abo9Widv-35" value="Tanh" style="ellipse;whiteSpace=wrap;html=1;fontSize=9;fillColor=#6d8764;fontColor=#ffffff;strokeColor=#3A5431;fontStyle=1" parent="1" vertex="1">
          <mxGeometry x="553" y="434.49" width="40" height="31.57" as="geometry" />
        </mxCell>
        <mxCell id="-NK8212SFT77abo9Widv-37" style="edgeStyle=orthogonalEdgeStyle;rounded=0;orthogonalLoop=1;jettySize=auto;html=1;entryX=0;entryY=0.5;entryDx=0;entryDy=0;strokeColor=#999999;endArrow=none;endFill=0;" parent="1" target="1mAbDg6GUyUuiM4qipqp-281" edge="1">
          <mxGeometry relative="1" as="geometry">
            <mxPoint x="375" y="404" as="sourcePoint" />
            <mxPoint x="391" y="404" as="targetPoint" />
          </mxGeometry>
        </mxCell>
        <mxCell id="-NK8212SFT77abo9Widv-38" style="edgeStyle=orthogonalEdgeStyle;rounded=0;orthogonalLoop=1;jettySize=auto;html=1;strokeColor=#999999;entryX=0;entryY=0.5;entryDx=0;entryDy=0;endArrow=none;endFill=0;" parent="1" target="-NK8212SFT77abo9Widv-35" edge="1">
          <mxGeometry relative="1" as="geometry">
            <mxPoint x="540" y="450.15999999999997" as="sourcePoint" />
            <mxPoint x="550" y="450" as="targetPoint" />
          </mxGeometry>
        </mxCell>
        <mxCell id="-NK8212SFT77abo9Widv-39" style="edgeStyle=orthogonalEdgeStyle;rounded=0;orthogonalLoop=1;jettySize=auto;html=1;strokeColor=#999999;entryX=0;entryY=0.5;entryDx=0;entryDy=0;endArrow=none;endFill=0;" parent="1" target="-NK8212SFT77abo9Widv-34" edge="1">
          <mxGeometry relative="1" as="geometry">
            <mxPoint x="540" y="404.55999999999995" as="sourcePoint" />
            <mxPoint x="550" y="404.4" as="targetPoint" />
          </mxGeometry>
        </mxCell>
        <mxCell id="-NK8212SFT77abo9Widv-40" style="edgeStyle=orthogonalEdgeStyle;rounded=0;orthogonalLoop=1;jettySize=auto;html=1;strokeColor=#999999;entryX=0;entryY=0.5;entryDx=0;entryDy=0;endArrow=none;endFill=0;" parent="1" target="-NK8212SFT77abo9Widv-33" edge="1">
          <mxGeometry relative="1" as="geometry">
            <mxPoint x="540" y="358.5899999999999" as="sourcePoint" />
            <mxPoint x="550" y="358.42999999999995" as="targetPoint" />
          </mxGeometry>
        </mxCell>
        <mxCell id="-NK8212SFT77abo9Widv-18" style="edgeStyle=orthogonalEdgeStyle;rounded=0;orthogonalLoop=1;jettySize=auto;html=1;entryX=0;entryY=0;entryDx=0;entryDy=0;strokeColor=#999999;endArrow=none;endFill=0;" parent="1" source="-NK8212SFT77abo9Widv-4" target="-NK8212SFT77abo9Widv-12" edge="1">
          <mxGeometry relative="1" as="geometry">
            <Array as="points">
              <mxPoint x="200" y="380" />
              <mxPoint x="200" y="397" />
            </Array>
          </mxGeometry>
        </mxCell>
        <mxCell id="-NK8212SFT77abo9Widv-13" style="edgeStyle=orthogonalEdgeStyle;rounded=0;orthogonalLoop=1;jettySize=auto;html=1;entryX=0;entryY=0.5;entryDx=0;entryDy=0;strokeColor=#999999;endArrow=none;endFill=0;" parent="1" source="-NK8212SFT77abo9Widv-5" target="-NK8212SFT77abo9Widv-12" edge="1">
          <mxGeometry relative="1" as="geometry" />
        </mxCell>
        <mxCell id="-NK8212SFT77abo9Widv-48" value="" style="group" parent="1" vertex="1" connectable="0">
          <mxGeometry x="603.38" y="440" width="83.24" height="30" as="geometry" />
        </mxCell>
        <mxCell id="1mAbDg6GUyUuiM4qipqp-147" value="" style="group;fillColor=#cce5ff;strokeColor=#36393d;container=0;" parent="-NK8212SFT77abo9Widv-48" vertex="1" connectable="0">
          <mxGeometry width="83.23999999999998" height="30.00000000000004" as="geometry" />
        </mxCell>
        <mxCell id="1mAbDg6GUyUuiM4qipqp-150" value="" style="endArrow=oval;html=1;rounded=0;endFill=1;strokeWidth=1;dashed=1;" parent="-NK8212SFT77abo9Widv-48" edge="1">
          <mxGeometry width="50" height="50" relative="1" as="geometry">
            <mxPoint x="3.508143768115985" y="27.999999999999982" as="sourcePoint" />
            <mxPoint x="3.468333333333281" y="3.999999999999948" as="targetPoint" />
          </mxGeometry>
        </mxCell>
        <mxCell id="1mAbDg6GUyUuiM4qipqp-153" value="" style="endArrow=oval;html=1;rounded=0;endFill=1;" parent="-NK8212SFT77abo9Widv-48" edge="1">
          <mxGeometry width="50" height="50" relative="1" as="geometry">
            <mxPoint x="23.413361159420294" y="27.999999999999982" as="sourcePoint" />
            <mxPoint x="23.41336115942018" y="27.999999999999982" as="targetPoint" />
          </mxGeometry>
        </mxCell>
        <mxCell id="1mAbDg6GUyUuiM4qipqp-154" value="" style="endArrow=oval;html=1;rounded=0;endFill=1;startSize=1;strokeWidth=1;dashed=1;" parent="-NK8212SFT77abo9Widv-48" edge="1">
          <mxGeometry width="50" height="50" relative="1" as="geometry">
            <mxPoint x="23.413361159420294" y="27.999999999999982" as="sourcePoint" />
            <mxPoint x="23.37355072463759" y="27.999999999999982" as="targetPoint" />
          </mxGeometry>
        </mxCell>
        <mxCell id="1mAbDg6GUyUuiM4qipqp-155" value="" style="endArrow=oval;html=1;rounded=0;endFill=1;startSize=1;strokeWidth=1;dashed=1;" parent="-NK8212SFT77abo9Widv-48" edge="1">
          <mxGeometry width="50" height="50" relative="1" as="geometry">
            <mxPoint x="43.28540318840566" y="27.999999999999982" as="sourcePoint" />
            <mxPoint x="43.278768115941894" y="15.999999999999964" as="targetPoint" />
          </mxGeometry>
        </mxCell>
        <mxCell id="1mAbDg6GUyUuiM4qipqp-157" value="" style="endArrow=oval;html=1;rounded=0;dashed=1;endFill=1;" parent="-NK8212SFT77abo9Widv-48" edge="1">
          <mxGeometry width="50" height="50" relative="1" as="geometry">
            <mxPoint x="74.97631884057961" y="27.999999999999982" as="sourcePoint" />
            <mxPoint x="74.97631884057961" y="10" as="targetPoint" />
          </mxGeometry>
        </mxCell>
        <mxCell id="1mAbDg6GUyUuiM4qipqp-158" value="" style="endArrow=oval;html=1;rounded=0;dashed=1;endFill=1;" parent="-NK8212SFT77abo9Widv-48" edge="1">
          <mxGeometry width="50" height="50" relative="1" as="geometry">
            <mxPoint x="79.76985710144925" y="27.999999999999982" as="sourcePoint" />
            <mxPoint x="79.76985710144925" y="3.999999999999948" as="targetPoint" />
          </mxGeometry>
        </mxCell>
        <mxCell id="1mAbDg6GUyUuiM4qipqp-159" value="" style="endArrow=none;html=1;rounded=0;" parent="-NK8212SFT77abo9Widv-48" edge="1">
          <mxGeometry width="50" height="50" relative="1" as="geometry">
            <mxPoint x="3.468333333333281" y="27.999999999999982" as="sourcePoint" />
            <mxPoint x="79.77166666666659" y="27.999999999999982" as="targetPoint" />
          </mxGeometry>
        </mxCell>
        <mxCell id="1mAbDg6GUyUuiM4qipqp-160" value="" style="endArrow=none;html=1;rounded=0;" parent="-NK8212SFT77abo9Widv-48" edge="1">
          <mxGeometry width="50" height="50" relative="1" as="geometry">
            <mxPoint x="3.468333333333281" y="27.999999999999982" as="sourcePoint" />
            <mxPoint x="79.77166666666659" y="27.999999999999982" as="targetPoint" />
          </mxGeometry>
        </mxCell>
        <mxCell id="1mAbDg6GUyUuiM4qipqp-178" value="" style="endArrow=oval;html=1;rounded=0;endFill=1;startSize=1;strokeWidth=1;dashed=1;" parent="-NK8212SFT77abo9Widv-48" edge="1">
          <mxGeometry width="50" height="50" relative="1" as="geometry">
            <mxPoint x="20.1163333333333" y="27.999999999999982" as="sourcePoint" />
            <mxPoint x="20.1163333333333" y="6.999999999999974" as="targetPoint" />
          </mxGeometry>
        </mxCell>
        <mxCell id="-NK8212SFT77abo9Widv-49" value="" style="group" parent="1" vertex="1" connectable="0">
          <mxGeometry x="603.38" y="390" width="83.24" height="30" as="geometry" />
        </mxCell>
        <mxCell id="1mAbDg6GUyUuiM4qipqp-132" value="" style="rounded=0;whiteSpace=wrap;html=1;fillColor=#ffcc99;strokeColor=#36393d;" parent="-NK8212SFT77abo9Widv-49" vertex="1">
          <mxGeometry width="83.24" height="30" as="geometry" />
        </mxCell>
        <mxCell id="1mAbDg6GUyUuiM4qipqp-136" value="" style="endArrow=oval;html=1;rounded=0;endFill=1;startSize=1;strokeWidth=1;dashed=1;" parent="-NK8212SFT77abo9Widv-49" edge="1">
          <mxGeometry width="50" height="50" relative="1" as="geometry">
            <mxPoint x="23.413361159420294" y="28.000000000000068" as="sourcePoint" />
            <mxPoint x="23.37355072463759" y="4.000000000000035" as="targetPoint" />
          </mxGeometry>
        </mxCell>
        <mxCell id="1mAbDg6GUyUuiM4qipqp-137" value="" style="endArrow=oval;html=1;rounded=0;endFill=1;" parent="-NK8212SFT77abo9Widv-49" edge="1">
          <mxGeometry width="50" height="50" relative="1" as="geometry">
            <mxPoint x="23.413361159420294" y="28.000000000000068" as="sourcePoint" />
            <mxPoint x="23.41336115942018" y="28.000000000000068" as="targetPoint" />
          </mxGeometry>
        </mxCell>
        <mxCell id="1mAbDg6GUyUuiM4qipqp-138" value="" style="endArrow=oval;html=1;rounded=0;endFill=1;startSize=1;strokeWidth=1;dashed=1;" parent="-NK8212SFT77abo9Widv-49" edge="1">
          <mxGeometry width="50" height="50" relative="1" as="geometry">
            <mxPoint x="23.413361159420294" y="28.000000000000068" as="sourcePoint" />
            <mxPoint x="23.37355072463759" y="28.000000000000068" as="targetPoint" />
          </mxGeometry>
        </mxCell>
        <mxCell id="1mAbDg6GUyUuiM4qipqp-141" value="" style="endArrow=oval;html=1;rounded=0;dashed=1;endFill=1;" parent="-NK8212SFT77abo9Widv-49" edge="1">
          <mxGeometry width="50" height="50" relative="1" as="geometry">
            <mxPoint x="63.18398550724632" y="28.000000000000068" as="sourcePoint" />
            <mxPoint x="63.18398550724632" y="10" as="targetPoint" />
          </mxGeometry>
        </mxCell>
        <mxCell id="1mAbDg6GUyUuiM4qipqp-143" value="" style="endArrow=none;html=1;rounded=0;" parent="-NK8212SFT77abo9Widv-49" edge="1">
          <mxGeometry width="50" height="50" relative="1" as="geometry">
            <mxPoint x="3.468333333333281" y="28.000000000000068" as="sourcePoint" />
            <mxPoint x="79.77166666666659" y="28.000000000000068" as="targetPoint" />
          </mxGeometry>
        </mxCell>
        <mxCell id="1mAbDg6GUyUuiM4qipqp-144" value="" style="endArrow=none;html=1;rounded=0;" parent="-NK8212SFT77abo9Widv-49" edge="1">
          <mxGeometry width="50" height="50" relative="1" as="geometry">
            <mxPoint x="3.468333333333281" y="28.000000000000068" as="sourcePoint" />
            <mxPoint x="79.77166666666659" y="28.000000000000068" as="targetPoint" />
          </mxGeometry>
        </mxCell>
        <mxCell id="b0dNV2S0Txuizjkoy-jq-2" style="edgeStyle=orthogonalEdgeStyle;rounded=0;orthogonalLoop=1;jettySize=auto;html=1;entryX=0.5;entryY=1;entryDx=0;entryDy=0;dashed=1;strokeColor=#999999;align=center;verticalAlign=middle;fontFamily=Helvetica;fontSize=11;fontColor=default;labelBackgroundColor=default;endArrow=classic;" parent="1" source="b0dNV2S0Txuizjkoy-jq-1" target="-NK8212SFT77abo9Widv-12" edge="1">
          <mxGeometry relative="1" as="geometry">
            <Array as="points">
              <mxPoint x="255" y="440" />
              <mxPoint x="219" y="440" />
            </Array>
          </mxGeometry>
        </mxCell>
        <mxCell id="b0dNV2S0Txuizjkoy-jq-1" value="&lt;b&gt;Accent Similarity&lt;/b&gt;" style="rounded=0;whiteSpace=wrap;html=1;fillColor=#f0a30a;strokeColor=#BD7000;fontSize=9;fontColor=#000000;opacity=40;" parent="1" vertex="1">
          <mxGeometry x="229" y="480.00142857142856" width="52" height="21.428571428571427" as="geometry" />
        </mxCell>
      </root>
    </mxGraphModel>
  </diagram>
</mxfile>
